<?xml version="1.0" encoding="utf-8"?>
<!-- Generator: Adobe Illustrator 16.0.0, SVG Export Plug-In . SVG Version: 6.00 Build 0)  -->
<!DOCTYPE svg PUBLIC "-//W3C//DTD SVG 1.0//EN" "http://www.w3.org/TR/2001/REC-SVG-20010904/DTD/svg10.dtd">
<svg version="1.0" id="Layer_1" xmlns="http://www.w3.org/2000/svg" xmlns:xlink="http://www.w3.org/1999/xlink" x="0px" y="0px"
	 width="100px" height="100px" viewBox="0 0 100 100" enable-background="new 0 0 100 100" xml:space="preserve">
<polygon fill="#fff" points="29.793,29.365 16.666,36.943 16.666,51.51 23.333,55.357 23.333,40.792 36.458,33.213 "/>
<path fill="#fff" d="M10,55.357v23.094L30,90V66.904L10,55.357z M23.333,78.451l-6.667-3.848v-7.699l6.667,3.848V78.451z"/>
<path fill="#fff" d="M49.999,10L29.793,21.667l20.206,11.666l20.206-11.666L49.999,10z M43.124,21.667l6.875-3.969l6.873,3.969
	l-6.873,3.968L43.124,21.667z"/>
<path fill="#fff" d="M69.999,66.904V90L90,78.451V55.357L69.999,66.904z M83.334,74.604l-6.667,3.849v-7.699l6.667-3.848V74.604z
	"/>
<polygon fill="#fff" points="70.209,29.365 83.334,36.943 83.334,51.51 76.667,55.357 76.667,40.792 63.541,33.213 "/>
</svg>
